<svg width="36" height="36" viewBox="0 0 36 36" fill="none" xmlns="http://www.w3.org/2000/svg">
<path fill-rule="evenodd" clip-rule="evenodd" d="M0 17.5769C0 7.86945 8.05887 0 18 0C27.9411 0 36 7.86945 36 17.5769C36 27.2844 27.9411 35.1538 18 35.1538C8.05887 35.1538 0 27.2844 0 17.5769ZM18.0009 8.20256C15.3937 8.20256 15.0665 8.21369 14.0425 8.25919C13.0204 8.30489 12.3228 8.46289 11.7124 8.69471C11.081 8.93415 10.5454 9.25445 10.0118 9.7757C9.47781 10.2968 9.14981 10.8198 8.90381 11.4362C8.6658 12.0324 8.5038 12.7138 8.4578 13.7114C8.412 14.7114 8.4 15.0311 8.4 17.577C8.4 20.1229 8.4116 20.4415 8.458 21.4414C8.505 22.4394 8.6668 23.1206 8.904 23.7167C9.14941 24.3332 9.47741 24.8563 10.0112 25.3773C10.5446 25.8988 11.0802 26.2199 11.7112 26.4593C12.322 26.6911 13.0198 26.8491 14.0417 26.8948C15.0657 26.9403 15.3927 26.9514 17.9997 26.9514C20.6071 26.9514 20.9333 26.9403 21.9573 26.8948C22.9794 26.8491 23.6778 26.6911 24.2886 26.4593C24.9198 26.2199 25.4546 25.8988 25.988 25.3773C26.522 24.8563 26.85 24.3332 27.096 23.7169C27.332 23.1206 27.494 22.4392 27.542 21.4416C27.588 20.4417 27.6 20.1229 27.6 17.577C27.6 15.0311 27.588 14.7115 27.542 13.7116C27.494 12.7136 27.332 12.0324 27.096 11.4363C26.85 10.8198 26.522 10.2968 25.988 9.7757C25.454 9.25425 24.92 8.93396 24.288 8.69471C23.676 8.46289 22.978 8.30489 21.9559 8.25919C20.9319 8.21369 20.6059 8.20256 17.9979 8.20256H18.0009Z" fill="white"/>
<path fill-rule="evenodd" clip-rule="evenodd" d="M17.1397 9.89191C17.3953 9.89152 17.6805 9.89191 18.0009 9.89191C20.5641 9.89191 20.8679 9.90089 21.8801 9.94581C22.8161 9.98761 23.3242 10.1403 23.6626 10.2686C24.1106 10.4386 24.43 10.6417 24.7658 10.9698C25.1018 11.2979 25.3098 11.6104 25.4842 12.0478C25.6156 12.3779 25.7722 12.874 25.8148 13.788C25.8608 14.7762 25.8708 15.073 25.8708 17.5749C25.8708 20.0767 25.8608 20.3735 25.8148 21.3617C25.772 22.2757 25.6156 22.7718 25.4842 23.1019C25.3102 23.5393 25.1018 23.8508 24.7658 24.1788C24.4298 24.5069 24.1108 24.71 23.6626 24.8799C23.3246 25.0088 22.8161 25.1611 21.8801 25.2029C20.8681 25.2478 20.5641 25.2576 18.0009 25.2576C15.4375 25.2576 15.1337 25.2478 14.1217 25.2029C13.1857 25.1607 12.6776 25.008 12.339 24.8797C11.891 24.7098 11.571 24.5067 11.235 24.1786C10.899 23.8505 10.691 23.5388 10.5166 23.1011C10.3852 22.771 10.2286 22.275 10.186 21.361C10.14 20.3727 10.1308 20.0759 10.1308 17.5725C10.1308 15.0691 10.14 14.7738 10.186 13.7856C10.2288 12.8716 10.3852 12.3756 10.5166 12.0451C10.6906 11.6076 10.899 11.2951 11.235 10.967C11.571 10.6389 11.891 10.4358 12.339 10.2655C12.6774 10.1366 13.1857 9.98429 14.1217 9.9423C15.0073 9.90324 15.3505 9.89152 17.1397 9.88957V9.89191ZM23.1254 11.4485C22.4893 11.4485 21.9733 11.9517 21.9733 12.573C21.9733 13.1941 22.4893 13.6979 23.1254 13.6979C23.7614 13.6979 24.2774 13.1941 24.2774 12.573C24.2774 11.9519 23.7614 11.4485 23.1254 11.4485ZM18.0009 12.7628C15.2783 12.7628 13.0708 14.9184 13.0708 17.577C13.0708 20.2356 15.2783 22.3902 18.0009 22.3902C20.7235 22.3902 22.9302 20.2356 22.9302 17.577C22.9302 14.9184 20.7235 12.7628 18.0009 12.7628Z" fill="white"/>
<path fill-rule="evenodd" clip-rule="evenodd" d="M18.0009 14.4522C19.7681 14.4522 21.2009 15.8511 21.2009 17.577C21.2009 19.3027 19.7681 20.7018 18.0009 20.7018C16.2335 20.7018 14.8009 19.3027 14.8009 17.577C14.8009 15.8511 16.2335 14.4522 18.0009 14.4522Z" fill="white"/>
</svg>
