<svg width="36" height="36" viewBox="0 0 36 36" fill="none" xmlns="http://www.w3.org/2000/svg">
<path fill-rule="evenodd" clip-rule="evenodd" d="M0 17.5769C0 7.86945 8.05887 0 18 0C27.9411 0 36 7.86945 36 17.5769C36 27.2844 27.9411 35.1538 18 35.1538C8.05887 35.1538 0 27.2844 0 17.5769ZM27.1988 13.2363C26.978 12.408 26.3273 11.7557 25.5012 11.5344C24.004 11.132 18 11.132 18 11.132C18 11.132 11.996 11.132 10.4987 11.5344C9.67255 11.7557 9.02193 12.408 8.80113 13.2363C8.4 14.7375 8.4 17.8699 8.4 17.8699C8.4 17.8699 8.4 21.0021 8.80113 22.5034C9.02193 23.3317 9.67255 23.984 10.4987 24.2055C11.996 24.6077 18 24.6077 18 24.6077C18 24.6077 24.004 24.6077 25.5012 24.2055C26.3273 23.984 26.978 23.3317 27.1988 22.5034C27.6 21.0021 27.6 17.8699 27.6 17.8699C27.6 17.8699 27.6 14.7375 27.1988 13.2363Z" fill="white"/>
<path fill-rule="evenodd" clip-rule="evenodd" d="M16.2002 21.0922V15.2333L21.0002 18.1629L16.2002 21.0922Z" fill="white"/>
</svg>
