<svg width="300" height="264" viewBox="0 0 300 264" fill="none" xmlns="http://www.w3.org/2000/svg">
<path d="M285.129 263.221H14.8564C9.64634 263.221 4.83211 260.441 2.22714 255.929C-0.37783 251.417 -0.377795 245.858 2.22723 241.346L137.356 8.01248C139.963 3.50785 144.774 0.73407 149.978 0.73407C155.183 0.73407 159.993 3.50785 162.6 8.01248L297.729 241.346C300.333 245.856 300.334 251.412 297.733 255.923C295.132 260.434 290.322 263.215 285.115 263.221H285.129ZM150 44.4708L40.1731 234.054H259.856L150 44.4708ZM164.511 175.735H135.344V102.804H164.511V175.735Z" fill="#00607A"/>
<path d="M135.417 190.333H164.583V219.5H135.417V190.333Z" fill="#00607A"/>
</svg>
