<svg width="32" height="42" viewBox="0 0 32 42" fill="none" xmlns="http://www.w3.org/2000/svg">
<path d="M16 41.2501C13.1581 38.826 10.5239 36.1685 8.125 33.3053C4.525 29.0056 0.250002 22.6021 0.250002 16.5001C0.246811 10.127 4.08456 4.38018 9.97241 1.9412C15.8603 -0.497788 22.6376 0.851843 27.142 5.3603C30.104 8.30917 31.7633 12.3204 31.7501 16.5001C31.7501 22.6021 27.475 29.0056 23.875 33.3053C21.4761 36.1685 18.8419 38.826 16 41.2501ZM16 5.25005C9.78988 5.25749 4.75744 10.2899 4.75 16.5001C4.75 19.1236 5.93575 23.6663 11.5788 30.4186C12.9696 32.0792 14.4453 33.6668 16 35.1751C17.5549 33.6686 19.0313 32.0832 20.4235 30.4253C26.0643 23.6641 27.25 19.1213 27.25 16.5001C27.2426 10.2899 22.2101 5.25749 16 5.25005ZM16 23.2501C12.2721 23.2501 9.25 20.228 9.25 16.5001C9.25 12.7721 12.2721 9.75005 16 9.75005C19.7279 9.75005 22.75 12.7721 22.75 16.5001C22.75 18.2903 22.0388 20.0072 20.773 21.273C19.5071 22.5389 17.7902 23.2501 16 23.2501Z" fill="#FDFDFD"/>
</svg>
