<svg width="42" height="42" viewBox="0 0 42 42" fill="none" xmlns="http://www.w3.org/2000/svg">
<path d="M13.6698 13.5343C11.2553 15.5859 10.3705 19.3276 12.4553 22.3293C14.4063 25.1383 16.8639 27.5954 19.6723 29.5455C22.6741 31.63 26.4157 30.7449 28.4671 28.3303L28.4899 28.3408C31.1102 29.5547 33.8934 30.3866 36.75 30.8106V36.75L36.7475 36.75L36.7412 36.75C18.7984 36.7754 5.23082 23.05 5.25002 5.25808V5.25H11.1886L11.189 5.25263C11.613 8.10896 12.4446 10.8897 13.6586 13.5099L13.6698 13.5343ZM36.7475 41.25H39C40.2426 41.25 41.25 40.2426 41.25 39V28.8699C41.25 27.7548 40.4333 26.8079 39.3303 26.6442L37.4084 26.359C34.9776 25.9983 32.6112 25.2906 30.3814 24.2577L28.6875 23.473C27.7058 23.0183 26.5396 23.3265 25.9108 24.2068L25.144 25.2805C24.4719 26.2214 23.1887 26.5088 22.239 25.8493C19.8713 24.2052 17.7962 22.1305 16.1513 19.7623C15.4916 18.8124 15.779 17.5291 16.7201 16.857L17.7932 16.0906C18.6737 15.4619 18.982 14.2955 18.5272 13.3138L17.7416 11.6182C16.7087 9.38865 16.001 7.02243 15.6402 4.59185L15.3548 2.66961C15.1911 1.56666 14.2443 0.75 13.1292 0.75H3.00002C1.75738 0.75 0.750023 1.75736 0.750023 3V5.25322C0.728154 25.5177 16.298 41.279 36.7475 41.25Z" fill="#F3F4F4"/>
</svg>
